<svg width="31" height="18" viewBox="0 0 31 18" fill="none" xmlns="http://www.w3.org/2000/svg">
<path d="M29.3307 0H1.27525C0.570948 0 0 0.570948 0 1.27525C0 1.97955 0.570948 2.5505 1.27525 2.5505H29.3307C30.035 2.5505 30.606 1.97955 30.606 1.27525C30.606 0.570948 30.035 0 29.3307 0Z" fill="black"/>
<path d="M24.2297 7.55054H1.27525C0.570948 7.55054 0 8.12149 0 8.82579C0 9.53009 0.570948 10.101 1.27525 10.101H24.2297C24.934 10.101 25.505 9.53009 25.505 8.82579C25.505 8.12149 24.934 7.55054 24.2297 7.55054Z" fill="black"/>
<path d="M29.3307 15.1011H1.27525C0.570948 15.1011 0 15.672 0 16.3763C0 17.0806 0.570948 17.6516 1.27525 17.6516H29.3307C30.035 17.6516 30.606 17.0806 30.606 16.3763C30.606 15.672 30.035 15.1011 29.3307 15.1011Z" fill="black"/>
</svg>
